#!OML:ASF F:\VICON\USERDATA\INSTALL\rory3\rory3.ASF
:FULLY-SPECIFIED
:DEGREES
547
root -12.0278 17.8071 10.2526 -182.258 -10.5723 176.959
lowerback 13.2281 -1.53495 -0.159857
upperback 0.328052 -2.07651 1.34317
thorax -7.02344 -1.0297 1.913
lowerneck -21.9041 -3.75488 -12.5581
upperneck 30.1554 -4.15531 6.24624
head 14.4574 -2.83239 3.80782
rclavicle 3.18055e-015 2.3059e-014
rhumerus -37.6519 -9.52336 -79.5023
rradius 34.6432
rwrist 6.81082
rhand -16.4738 9.94054
rfingers 7.12502
rthumb 9.74304 -19.8141
lclavicle 3.18055e-015 2.3059e-014
lhumerus -30.6176 5.52119 82.4832
lradius 33.3721
lwrist -6.12947
lhand -25.0083 19.7033
lfingers 7.12502
lthumb 1.50356 49.6777
rfemur -3.15178 -0.849276 19.095
rtibia 31.9368
rfoot -20.1172 7.74875
rtoes -1.41374
lfemur -10.7314 0.766764 -15.1685
ltibia 37.6806
lfoot -16.0919 -8.71931
ltoes -27.838
548
root -12.0755 17.8152 10.2602 -182.307 -10.5931 177.221
lowerback 13.3286 -1.44393 -0.11565
upperback 0.305099 -1.94344 1.4297
thorax -7.10708 -0.964559 1.95903
lowerneck -21.8545 -3.76702 -12.4631
upperneck 30.1376 -4.23992 6.31377
head 14.4473 -2.84786 3.80366
rclavicle 1.49089e-016 -3.97569e-014
rhumerus -37.5993 -9.64896 -79.318
rradius 34.3967
rwrist 6.95713
rhand -16.4169 9.70029
rfingers 7.12502
rthumb 9.79792 -20.0518
lclavicle 1.49089e-016 -3.97569e-014
lhumerus -30.7351 5.43034 82.639
lradius 33.5827
lwrist -6.44485
lhand -24.8384 19.7092
lfingers 7.12502
lthumb 1.66763 49.6824
rfemur -2.83162 -0.969745 19.25
rtibia 31.3954
rfoot -19.911 7.49305
rtoes -1.45869
lfemur -10.7726 0.615497 -14.4299
ltibia 37.3349
lfoot -16.5321 -6.49851
ltoes -27.7127
549
root -12.1215 17.82 10.2654 -182.415 -10.548 177.373
lowerback 13.4168 -1.31401 -0.185171
upperback 0.369578 -1.7834 1.47339
thorax -7.08932 -0.886058 2.0158
lowerneck -21.9405 -3.82312 -12.4744
upperneck 30.1123 -4.35773 6.50438
head 14.4742 -2.86608 3.86335
rclavicle 7.45443e-016 1.35174e-014
rhumerus -37.4322 -9.87538 -79.131
rradius 34.1656
rwrist 7.05994
rhand -16.2253 9.37458
rfingers 7.12502
rthumb 9.98278 -20.3687
lclavicle 7.45443e-016 1.35174e-014
lhumerus -30.685 5.37394 82.748
lradius 33.6624
lwrist -6.95121
lhand -24.7972 20.06
lfingers 7.12502
lthumb 1.70743 50.0329
rfemur -2.45921 -0.914669 19.3141
rtibia 30.9316
rfoot -19.6485 7.16576
rtoes -1.09017
lfemur -10.6637 0.464227 -13.7903
ltibia 36.8728
lfoot -16.7869 -4.61968
ltoes -26.8417
550
root -12.1706 17.8301 10.2686 -182.436 -10.5711 177.404
lowerback 13.4096 -1.20929 -0.290235
upperback 0.418407 -1.66369 1.45049
thorax -7.03484 -0.825928 2.02661
lowerneck -22.0431 -3.91158 -12.4926
upperneck 30.1091 -4.51038 6.65938
head 14.519 -2.90601 3.90288
rclavicle 4.92986e-014 -1.27222e-014
rhumerus -37.3139 -10.3054 -78.9052
rradius 33.9447
rwrist 7.23214
rhand -16.2585 9.32057
rfingers 7.12502
rthumb 9.95079 -20.4242
lclavicle 4.92986e-014 -1.27222e-014
lhumerus -30.6731 5.14671 82.8614
lradius 33.789
lwrist -7.21869
lhand -25.0968 20.3419
lfingers 7.12502
lthumb 1.41809 50.317
rfemur -2.17206 -0.918947 19.2166
rtibia 30.5339
rfoot -19.4218 6.91312
rtoes -0.467529
lfemur -10.605 0.11762 -13.2885
ltibia 36.3184
lfoot -16.6448 -3.2482
ltoes -24.9123
551
root -12.2193 17.8436 10.2722 -182.341 -10.3844 177.439
lowerback 13.3289 -1.06955 -0.441645
upperback 0.404773 -1.49953 1.42613
thorax -7.00668 -0.740096 2.05278
lowerneck -21.9263 -3.92158 -12.3532
upperneck 29.9312 -4.59274 6.72609
head 14.4218 -2.9063 3.88795
rclavicle -1.42131e-014 -7.71285e-014
rhumerus -37.1859 -10.7571 -78.7062
rradius 33.6214
rwrist 7.3789
rhand -16.4272 9.16665
rfingers 7.12502
rthumb 9.78801 -20.5859
lclavicle -1.42131e-014 -7.71285e-014
lhumerus -30.7852 5.02561 82.8
lradius 33.9591
lwrist -7.63753
lhand -24.571 20.2695
lfingers 7.12502
lthumb 1.92587 50.2406
rfemur -2.11129 -0.886707 19.0998
rtibia 30.1968
rfoot -19.3639 6.79668
rtoes -1.25653
lfemur -10.6074 -0.0530031 -12.7354
ltibia 35.6687
lfoot -16.1435 -2.15626
ltoes -22.9655
552
root -12.2691 17.8551 10.2803 -182.194 -10.0019 177.556
lowerback 13.2613 -0.896212 -0.525935
upperback 0.359866 -1.27686 1.44131
thorax -7.02268 -0.626518 2.07326
lowerneck -21.858 -3.89588 -12.3658
upperneck 29.7769 -4.62707 6.9955
head 14.3498 -2.87681 3.99373
rclavicle -2.48481e-016 -1.66979e-014
rhumerus -36.9949 -11.2079 -78.4931
rradius 33.2306
rwrist 7.60891
rhand -16.4376 8.85183
rfingers 7.12502
rthumb 9.77798 -20.9012
lclavicle -2.48481e-016 -1.66979e-014
lhumerus -30.9959 4.81964 82.7545
lradius 34.2442
lwrist -7.87932
lhand -24.0756 20.3746
lfingers 7.12502
lthumb 2.40439 50.3408
rfemur -2.21149 -0.695017 19.0655
rtibia 29.8763
rfoot -19.2411 6.84132
rtoes -1.01232
lfemur -10.6511 -0.0337708 -12.067
ltibia 34.9798
lfoot -15.3649 -1.18915
ltoes -21.0919
553
root -12.3231 17.8615 10.2903 -182.127 -9.83123 177.541
lowerback 13.303 -0.760352 -0.591755
upperback 0.361084 -1.10981 1.3647
thorax -7.05142 -0.543099 1.99849
lowerneck -21.99 -3.98206 -12.5461
upperneck 29.7748 -4.78301 7.36247
head 14.4138 -2.90818 4.14957
rclavicle 2.38542e-014 -1.66979e-014
rhumerus -36.8496 -11.9534 -78.2195
rradius 32.9267
rwrist 7.75633
rhand -16.4637 8.94391
rfingers 7.12502
rthumb 9.75277 -20.8103
lclavicle 2.38542e-014 -1.66979e-014
lhumerus -31.1355 4.60877 82.7297
lradius 34.5688
lwrist -7.986
lhand -24.1867 20.0829
lfingers 7.12502
lthumb 2.29705 50.0503
rfemur -2.17538 -0.605873 18.8537
rtibia 29.5934
rfoot -19.097 6.99985
rtoes 0.639278
lfemur -10.61 -0.387049 -11.5699
ltibia 34.2415
lfoot -14.3718 -0.307208
ltoes -19.2055
554
root -12.3756 17.8654 10.2956 -182.197 -9.80751 177.457
lowerback 13.4392 -0.65491 -0.726518
upperback 0.398175 -0.999123 1.25439
thorax -7.09211 -0.486535 1.9391
lowerneck -22.1087 -4.08649 -12.5985
upperneck 29.8013 -4.94504 7.50201
head 14.4791 -2.96051 4.18727
rclavicle 4.96962e-017 -1.19271e-014
rhumerus -36.8007 -12.6375 -77.9954
rradius 32.7754
rwrist 7.38079
rhand -16.4803 9.07872
rfingers 7.12502
rthumb 9.73674 -20.6762
lclavicle 4.96962e-017 -1.19271e-014
lhumerus -31.1975 4.39446 82.7291
lradius 34.7915
lwrist -7.79564
lhand -24.5905 19.0376
lfingers 7.12502
lthumb 1.90703 49.0089
rfemur -1.93046 -0.508357 18.5886
rtibia 29.3233
rfoot -18.9748 6.99267
rtoes 1.02252
lfemur -10.3924 -0.830908 -11.124
ltibia 33.457
lfoot -13.1268 0.332973
ltoes -18.4162
555
root -12.4333 17.8697 10.2936 -182.335 -9.64758 177.31
lowerback 13.4929 -0.530935 -0.899634
upperback 0.496051 -0.875443 1.10581
thorax -7.02215 -0.425651 1.85538
lowerneck -22.0758 -4.0965 -12.4588
upperneck 29.6879 -4.99021 7.48377
head 14.4223 -2.95825 4.14443
rclavicle -7.95139e-015 -1.19271e-014
rhumerus -36.7345 -13.071 -77.9144
rradius 32.5978
rwrist 6.97137
rhand -16.7427 9.18889
rfingers 7.12502
rthumb 9.48359 -20.5777
lclavicle -7.95139e-015 -1.19271e-014
lhumerus -31.2632 3.999 82.7227
lradius 35.0298
lwrist -7.15446
lhand -24.6656 18.586
lfingers 7.12502
lthumb 1.83449 48.5578
rfemur -1.59342 -0.348913 18.2257
rtibia 29.0399
rfoot -18.8959 6.98536
rtoes 0.304538
lfemur -9.99214 -1.23017 -10.7601
ltibia 32.6344
lfoot -11.6336 0.88662
ltoes -16.9297
